<svg width="4404" height="2483" xmlns="http://www.w3.org/2000/svg" xmlns:xlink="http://www.w3.org/1999/xlink" xml:space="preserve" overflow="hidden"><g transform="translate(4 4)"><g><path d="M0.499836 44.3347C0.499836 20.1254 20.1255 0.499836 44.335 0.499836L219.665 0.499836C243.874 0.499836 263.5 20.1254 263.5 44.3347L263.5 2431.67C263.5 2455.87 243.874 2475.5 219.665 2475.5L44.335 2475.5C20.1255 2475.5 0.499836 2455.87 0.499836 2431.67Z" stroke="#5E5E5D" stroke-width="4.58333" stroke-linecap="butt" stroke-linejoin="miter" stroke-miterlimit="8" stroke-opacity="1" fill="#5E5E5D" fill-rule="evenodd" fill-opacity="1"/><text fill="#FFFFFF" fill-opacity="1" font-family="Trebuchet MS,Trebuchet MS_MSFontService,sans-serif" font-style="normal" font-variant="normal" font-weight="400" font-stretch="normal" font-size="83" text-anchor="start" direction="ltr" writing-mode="lr-tb" unicode-bidi="normal" text-decoration="none" transform="matrix(6.12323e-17 -1 1 6.12323e-17 112.585 1652)">Gold Standard Dataset</text><text fill="#FFFFFF" fill-opacity="1" font-family="Trebuchet MS,Trebuchet MS_MSFontService,sans-serif" font-style="normal" font-variant="normal" font-weight="400" font-stretch="normal" font-size="83" text-anchor="start" direction="ltr" writing-mode="lr-tb" unicode-bidi="normal" text-decoration="none" transform="matrix(6.12323e-17 -1 1 6.12323e-17 211.585 1415)">(</text><text fill="#FFFFFF" fill-opacity="1" font-family="Cambria Math,Cambria Math_MSFontService,sans-serif" font-style="normal" font-variant="normal" font-weight="400" font-stretch="normal" font-size="83" text-anchor="start" direction="ltr" writing-mode="lr-tb" unicode-bidi="normal" text-decoration="none" transform="matrix(6.12323e-17 -1 1 6.12323e-17 211.585 1385)">𝑛</text><text fill="#FFFFFF" fill-opacity="1" font-family="Cambria Math,Cambria Math_MSFontService,sans-serif" font-style="normal" font-variant="normal" font-weight="400" font-stretch="normal" font-size="83" text-anchor="start" direction="ltr" writing-mode="lr-tb" unicode-bidi="normal" text-decoration="none" transform="matrix(6.12323e-17 -1 1 6.12323e-17 211.585 1313)">=</text><text fill="#FFFFFF" fill-opacity="1" font-family="Cambria Math,Cambria Math_MSFontService,sans-serif" font-style="normal" font-variant="normal" font-weight="400" font-stretch="normal" font-size="83" text-anchor="start" direction="ltr" writing-mode="lr-tb" unicode-bidi="normal" text-decoration="none" transform="matrix(6.12323e-17 -1 1 6.12323e-17 211.585 1228)">139</text><text fill="#FFFFFF" fill-opacity="1" font-family="Trebuchet MS,Trebuchet MS_MSFontService,sans-serif" font-style="normal" font-variant="normal" font-weight="400" font-stretch="normal" font-size="83" text-anchor="start" direction="ltr" writing-mode="lr-tb" unicode-bidi="normal" text-decoration="none" transform="matrix(6.12323e-17 -1 1 6.12323e-17 211.585 1090)">)</text><path d="M381.5 268.334C381.5 244.125 401.125 224.5 425.335 224.5L600.666 224.5C624.875 224.5 644.5 244.125 644.5 268.334L644.5 2207.67C644.5 2231.87 624.875 2251.5 600.666 2251.5L425.335 2251.5C401.125 2251.5 381.5 2231.87 381.5 2207.67Z" stroke="#5E5E5D" stroke-width="4.58333" stroke-linecap="butt" stroke-linejoin="miter" stroke-miterlimit="8" stroke-opacity="1" fill="#5E5E5D" fill-rule="evenodd" fill-opacity="1"/><text fill="#FFFFFF" fill-opacity="1" font-family="Trebuchet MS,Trebuchet MS_MSFontService,sans-serif" font-style="normal" font-variant="normal" font-weight="400" font-stretch="normal" font-size="83" text-anchor="start" direction="ltr" writing-mode="lr-tb" unicode-bidi="normal" text-decoration="none" transform="matrix(6.12323e-17 -1 1 6.12323e-17 493.909 1647)">Downloadable Reports</text><text fill="#FFFFFF" fill-opacity="1" font-family="Trebuchet MS,Trebuchet MS_MSFontService,sans-serif" font-style="normal" font-variant="normal" font-weight="400" font-stretch="normal" font-size="83" text-anchor="start" direction="ltr" writing-mode="lr-tb" unicode-bidi="normal" text-decoration="none" transform="matrix(6.12323e-17 -1 1 6.12323e-17 592.909 1415)">(</text><text fill="#FFFFFF" fill-opacity="1" font-family="Cambria Math,Cambria Math_MSFontService,sans-serif" font-style="normal" font-variant="normal" font-weight="400" font-stretch="normal" font-size="83" text-anchor="start" direction="ltr" writing-mode="lr-tb" unicode-bidi="normal" text-decoration="none" transform="matrix(6.12323e-17 -1 1 6.12323e-17 592.909 1385)">𝑛</text><text fill="#FFFFFF" fill-opacity="1" font-family="Cambria Math,Cambria Math_MSFontService,sans-serif" font-style="normal" font-variant="normal" font-weight="400" font-stretch="normal" font-size="83" text-anchor="start" direction="ltr" writing-mode="lr-tb" unicode-bidi="normal" text-decoration="none" transform="matrix(6.12323e-17 -1 1 6.12323e-17 592.909 1313)">=</text><text fill="#FFFFFF" fill-opacity="1" font-family="Cambria Math,Cambria Math_MSFontService,sans-serif" font-style="normal" font-variant="normal" font-weight="400" font-stretch="normal" font-size="83" text-anchor="start" direction="ltr" writing-mode="lr-tb" unicode-bidi="normal" text-decoration="none" transform="matrix(6.12323e-17 -1 1 6.12323e-17 592.909 1228)">114</text><text fill="#FFFFFF" fill-opacity="1" font-family="Trebuchet MS,Trebuchet MS_MSFontService,sans-serif" font-style="normal" font-variant="normal" font-weight="400" font-stretch="normal" font-size="83" text-anchor="start" direction="ltr" writing-mode="lr-tb" unicode-bidi="normal" text-decoration="none" transform="matrix(6.12323e-17 -1 1 6.12323e-17 592.909 1090)">)</text><path d="M644 1231.12 727.785 1231.13 727.785 1244.88 644 1244.87ZM720.91 1217.38 762.16 1238 720.91 1258.63Z" fill="#8797A3" fill-rule="nonzero" fill-opacity="1"/><path d="M763.5 802.335C763.5 778.126 783.125 758.5 807.335 758.5L982.665 758.5C1006.87 758.5 1026.5 778.126 1026.5 802.335L1026.5 1673.67C1026.5 1697.87 1006.87 1717.5 982.665 1717.5L807.335 1717.5C783.125 1717.5 763.5 1697.87 763.5 1673.67Z" stroke="#5E5E5D" stroke-width="4.58333" stroke-linecap="butt" stroke-linejoin="miter" stroke-miterlimit="8" stroke-opacity="1" fill="#5E5E5D" fill-rule="evenodd" fill-opacity="1"/><text fill="#FFFFFF" fill-opacity="1" font-family="Trebuchet MS,Trebuchet MS_MSFontService,sans-serif" font-style="normal" font-variant="normal" font-weight="400" font-stretch="normal" font-size="83" text-anchor="start" direction="ltr" writing-mode="lr-tb" unicode-bidi="normal" text-decoration="none" transform="matrix(6.12323e-17 -1 1 6.12323e-17 875.234 1371)">gs_slim</text><text fill="#FFFFFF" fill-opacity="1" font-family="Trebuchet MS,Trebuchet MS_MSFontService,sans-serif" font-style="normal" font-variant="normal" font-weight="400" font-stretch="normal" font-size="83" text-anchor="start" direction="ltr" writing-mode="lr-tb" unicode-bidi="normal" text-decoration="none" transform="matrix(6.12323e-17 -1 1 6.12323e-17 974.234 1392)">(</text><text fill="#FFFFFF" fill-opacity="1" font-family="Cambria Math,Cambria Math_MSFontService,sans-serif" font-style="normal" font-variant="normal" font-weight="400" font-stretch="normal" font-size="83" text-anchor="start" direction="ltr" writing-mode="lr-tb" unicode-bidi="normal" text-decoration="none" transform="matrix(6.12323e-17 -1 1 6.12323e-17 974.234 1362)">𝑛</text><text fill="#FFFFFF" fill-opacity="1" font-family="Cambria Math,Cambria Math_MSFontService,sans-serif" font-style="normal" font-variant="normal" font-weight="400" font-stretch="normal" font-size="83" text-anchor="start" direction="ltr" writing-mode="lr-tb" unicode-bidi="normal" text-decoration="none" transform="matrix(6.12323e-17 -1 1 6.12323e-17 974.234 1290)">=</text><text fill="#FFFFFF" fill-opacity="1" font-family="Cambria Math,Cambria Math_MSFontService,sans-serif" font-style="normal" font-variant="normal" font-weight="400" font-stretch="normal" font-size="83" text-anchor="start" direction="ltr" writing-mode="lr-tb" unicode-bidi="normal" text-decoration="none" transform="matrix(6.12323e-17 -1 1 6.12323e-17 974.234 1205)">54</text><text fill="#FFFFFF" fill-opacity="1" font-family="Trebuchet MS,Trebuchet MS_MSFontService,sans-serif" font-style="normal" font-variant="normal" font-weight="400" font-stretch="normal" font-size="83" text-anchor="start" direction="ltr" writing-mode="lr-tb" unicode-bidi="normal" text-decoration="none" transform="matrix(6.12323e-17 -1 1 6.12323e-17 974.234 1113)">)</text><path d="M263 1231.12 346.785 1231.13 346.785 1244.88 263 1244.87ZM339.91 1217.38 381.16 1238 339.91 1258.63Z" fill="#8797A3" fill-rule="nonzero" fill-opacity="1"/><path d="M1269 284.835C1269 251.237 1296.24 224 1329.83 224L3761.17 224C3794.76 224 3822 251.237 3822 284.835L3822 528.165C3822 561.763 3794.76 589 3761.17 589L1329.83 589C1296.24 589 1269 561.763 1269 528.165Z" fill="#910830" fill-rule="evenodd" fill-opacity="1"/><text fill="#FFFFFF" fill-opacity="1" font-family="Trebuchet MS,Trebuchet MS_MSFontService,sans-serif" font-style="normal" font-variant="normal" font-weight="700" font-stretch="normal" font-size="83" text-anchor="start" direction="ltr" writing-mode="lr-tb" unicode-bidi="normal" text-decoration="none" transform="matrix(1 0 0 1 2384.71 335)">Baseline</text><text fill="#FFFFFF" fill-opacity="1" font-family="Trebuchet MS,Trebuchet MS_MSFontService,sans-serif" font-style="normal" font-variant="normal" font-weight="400" font-stretch="normal" font-size="73" text-anchor="start" direction="ltr" writing-mode="lr-tb" unicode-bidi="normal" text-decoration="none" transform="matrix(1 0 0 1 2107.99 453)">Anthropic Claude Opus 4.7</text><text fill="#FFFFFF" fill-opacity="1" font-family="Trebuchet MS,Trebuchet MS_MSFontService,sans-serif" font-style="normal" font-variant="normal" font-weight="400" font-stretch="normal" font-size="73" text-anchor="start" direction="ltr" writing-mode="lr-tb" unicode-bidi="normal" text-decoration="none" transform="matrix(1 0 0 1 2287.27 541)">(Web Interface)</text><path d="M4065 238.834C4065 207.998 4090 183 4120.83 183L4344.17 183C4375 183 4400 207.998 4400 238.834L4400 2195.17C4400 2226 4375 2251 4344.17 2251L4120.83 2251C4090 2251 4065 2226 4065 2195.17Z" fill="#910830" fill-rule="evenodd" fill-opacity="1"/><text fill="#FFFFFF" fill-opacity="1" font-family="Trebuchet MS,Trebuchet MS_MSFontService,sans-serif" font-style="normal" font-variant="normal" font-weight="400" font-stretch="normal" font-size="83" text-anchor="start" direction="ltr" writing-mode="lr-tb" unicode-bidi="normal" text-decoration="none" transform="matrix(6.12323e-17 -1 1 6.12323e-17 4263.04 2001)">Extracted Scope Emission Values and Units</text><path d="M2198 818.834C2198 785.237 2225.24 758 2258.83 758L3761.17 758C3794.76 758 3822 785.237 3822 818.834L3822 1062.17C3822 1095.76 3794.76 1123 3761.17 1123L2258.83 1123C2225.24 1123 2198 1095.76 2198 1062.17Z" fill="#910830" fill-rule="evenodd" fill-opacity="1"/><text fill="#FFFFFF" fill-opacity="1" font-family="Trebuchet MS,Trebuchet MS_MSFontService,sans-serif" font-style="normal" font-variant="normal" font-weight="700" font-stretch="normal" font-size="83" text-anchor="start" direction="ltr" writing-mode="lr-tb" unicode-bidi="normal" text-decoration="none" transform="matrix(1 0 0 1 2816.78 869)">Pipeline A</text><text fill="#FFFFFF" fill-opacity="1" font-family="Trebuchet MS,Trebuchet MS_MSFontService,sans-serif" font-style="normal" font-variant="normal" font-weight="400" font-stretch="normal" font-size="73" text-anchor="start" direction="ltr" writing-mode="lr-tb" unicode-bidi="normal" text-decoration="none" transform="matrix(1 0 0 1 2572.44 987)">Anthropic Claude Opus 4.7</text><text fill="#FFFFFF" fill-opacity="1" font-family="Trebuchet MS,Trebuchet MS_MSFontService,sans-serif" font-style="normal" font-variant="normal" font-weight="400" font-stretch="normal" font-size="73" text-anchor="start" direction="ltr" writing-mode="lr-tb" unicode-bidi="normal" text-decoration="none" transform="matrix(1 0 0 1 2828.85 1075)">(Batch API)</text><path d="M2198 1330.5C2198 1279.41 2239.41 1238 2290.5 1238L2660.5 1238C2711.59 1238 2753 1279.41 2753 1330.5L2753 2146.5C2753 2197.59 2711.59 2239 2660.5 2239L2290.5 2239C2239.41 2239 2198 2197.59 2198 2146.5Z" fill="#910830" fill-rule="evenodd" fill-opacity="1"/><text fill="#FFFFFF" fill-opacity="1" font-family="Trebuchet MS,Trebuchet MS_MSFontService,sans-serif" font-style="normal" font-variant="normal" font-weight="700" font-stretch="normal" font-size="83" text-anchor="start" direction="ltr" writing-mode="lr-tb" unicode-bidi="normal" text-decoration="none" transform="matrix(1 0 0 1 2281.4 1667)">Pipeline B</text><text fill="#FFFFFF" fill-opacity="1" font-family="Trebuchet MS,Trebuchet MS_MSFontService,sans-serif" font-style="normal" font-variant="normal" font-weight="400" font-stretch="normal" font-size="73" text-anchor="start" direction="ltr" writing-mode="lr-tb" unicode-bidi="normal" text-decoration="none" transform="matrix(1 0 0 1 2310.32 1785)">Qwen3</text><text fill="#FFFFFF" fill-opacity="1" font-family="Trebuchet MS,Trebuchet MS_MSFontService,sans-serif" font-style="normal" font-variant="normal" font-weight="400" font-stretch="normal" font-size="73" text-anchor="start" direction="ltr" writing-mode="lr-tb" unicode-bidi="normal" text-decoration="none" transform="matrix(1 0 0 1 2533.18 1785)">-</text><text fill="#FFFFFF" fill-opacity="1" font-family="Trebuchet MS,Trebuchet MS_MSFontService,sans-serif" font-style="normal" font-variant="normal" font-weight="400" font-stretch="normal" font-size="73" text-anchor="start" direction="ltr" writing-mode="lr-tb" unicode-bidi="normal" text-decoration="none" transform="matrix(1 0 0 1 2560.11 1785)">VL</text><text fill="#FFFFFF" fill-opacity="1" font-family="Trebuchet MS,Trebuchet MS_MSFontService,sans-serif" font-style="normal" font-variant="normal" font-weight="400" font-stretch="normal" font-size="73" text-anchor="start" direction="ltr" writing-mode="lr-tb" unicode-bidi="normal" text-decoration="none" transform="matrix(1 0 0 1 2314.15 1873)">(PALMA II)</text><path d="M1267 876.002C1267 812.488 1318.49 761 1382 761L1842 761C1905.51 761 1957 812.488 1957 876.002L1957 2138C1957 2201.51 1905.51 2253 1842 2253L1382 2253C1318.49 2253 1267 2201.51 1267 2138Z" fill="#910830" fill-rule="evenodd" fill-opacity="1"/><text fill="#FFFFFF" fill-opacity="1" font-family="Trebuchet MS,Trebuchet MS_MSFontService,sans-serif" font-style="normal" font-variant="normal" font-weight="700" font-stretch="normal" font-size="83" text-anchor="start" direction="ltr" writing-mode="lr-tb" unicode-bidi="normal" text-decoration="none" transform="matrix(1 0 0 1 1339.02 1334)">Retrieval Step</text><text fill="#FFFFFF" fill-opacity="1" font-family="Trebuchet MS,Trebuchet MS_MSFontService,sans-serif" font-style="normal" font-variant="normal" font-weight="400" font-stretch="normal" font-size="73" text-anchor="start" direction="ltr" writing-mode="lr-tb" unicode-bidi="normal" text-decoration="none" transform="matrix(1 0 0 1 1394.59 1452)">ColEmbed</text><text fill="#FFFFFF" fill-opacity="1" font-family="Trebuchet MS,Trebuchet MS_MSFontService,sans-serif" font-style="normal" font-variant="normal" font-weight="400" font-stretch="normal" font-size="73" text-anchor="start" direction="ltr" writing-mode="lr-tb" unicode-bidi="normal" text-decoration="none" transform="matrix(1 0 0 1 1721.72 1452)">-</text><text fill="#FFFFFF" fill-opacity="1" font-family="Trebuchet MS,Trebuchet MS_MSFontService,sans-serif" font-style="normal" font-variant="normal" font-weight="400" font-stretch="normal" font-size="73" text-anchor="start" direction="ltr" writing-mode="lr-tb" unicode-bidi="normal" text-decoration="none" transform="matrix(1 0 0 1 1748.65 1452)">VL</text><text fill="#FFFFFF" fill-opacity="1" font-family="Trebuchet MS,Trebuchet MS_MSFontService,sans-serif" font-style="italic" font-variant="normal" font-weight="400" font-stretch="normal" font-size="73" text-anchor="start" direction="ltr" writing-mode="lr-tb" unicode-bidi="normal" text-decoration="none" transform="matrix(1 0 0 1 1465.06 1567)">Delivers:</text><text fill="#FFFFFF" fill-opacity="1" font-family="Trebuchet MS,Trebuchet MS_MSFontService,sans-serif" font-style="italic" font-variant="normal" font-weight="400" font-stretch="normal" font-size="73" text-anchor="start" direction="ltr" writing-mode="lr-tb" unicode-bidi="normal" text-decoration="none" transform="matrix(1 0 0 1 1398.6 1655)">Retrieval set</text><text fill="#FFFFFF" fill-opacity="1" font-family="Trebuchet MS,Trebuchet MS_MSFontService,sans-serif" font-style="italic" font-variant="normal" font-weight="400" font-stretch="normal" font-size="73" text-anchor="start" direction="ltr" writing-mode="lr-tb" unicode-bidi="normal" text-decoration="none" transform="matrix(1 0 0 1 1461.89 1743)">(9 pages)</text><path d="M2887 1821.5C2887 1775.39 2924.39 1738 2970.5 1738L3738.5 1738C3784.62 1738 3822 1775.39 3822 1821.5L3822 2155.5C3822 2201.61 3784.62 2239 3738.5 2239L2970.5 2239C2924.39 2239 2887 2201.61 2887 2155.5Z" fill="#910830" fill-rule="evenodd" fill-opacity="1"/><text fill="#FFFFFF" fill-opacity="1" font-family="Trebuchet MS,Trebuchet MS_MSFontService,sans-serif" font-style="normal" font-variant="normal" font-weight="700" font-stretch="normal" font-size="83" text-anchor="start" direction="ltr" writing-mode="lr-tb" unicode-bidi="normal" text-decoration="none" transform="matrix(1 0 0 1 3142.42 1874)">Pipeline B</text><text fill="#FFFFFF" fill-opacity="1" font-family="Trebuchet MS,Trebuchet MS_MSFontService,sans-serif" font-style="normal" font-variant="normal" font-weight="700" font-stretch="normal" font-size="55" text-anchor="start" direction="ltr" writing-mode="lr-tb" unicode-bidi="normal" text-decoration="none" transform="matrix(1 0 0 1 3530.28 1894)">G</text><text fill="#FFFFFF" fill-opacity="1" font-family="Trebuchet MS,Trebuchet MS_MSFontService,sans-serif" font-style="normal" font-variant="normal" font-weight="400" font-stretch="normal" font-size="73" text-anchor="start" direction="ltr" writing-mode="lr-tb" unicode-bidi="normal" text-decoration="none" transform="matrix(1 0 0 1 3013.79 1992)">o</text><text fill="#FFFFFF" fill-opacity="1" font-family="Trebuchet MS,Trebuchet MS_MSFontService,sans-serif" font-style="normal" font-variant="normal" font-weight="400" font-stretch="normal" font-size="73" text-anchor="start" direction="ltr" writing-mode="lr-tb" unicode-bidi="normal" text-decoration="none" transform="matrix(1 0 0 1 3053.32 1992)">ptimize_anything &amp; </text><text fill="#FFFFFF" fill-opacity="1" font-family="Trebuchet MS,Trebuchet MS_MSFontService,sans-serif" font-style="normal" font-variant="normal" font-weight="400" font-stretch="normal" font-size="73" text-anchor="start" direction="ltr" writing-mode="lr-tb" unicode-bidi="normal" text-decoration="none" transform="matrix(1 0 0 1 3189.67 2080)">Qwen3</text><text fill="#FFFFFF" fill-opacity="1" font-family="Trebuchet MS,Trebuchet MS_MSFontService,sans-serif" font-style="normal" font-variant="normal" font-weight="400" font-stretch="normal" font-size="73" text-anchor="start" direction="ltr" writing-mode="lr-tb" unicode-bidi="normal" text-decoration="none" transform="matrix(1 0 0 1 3412.54 2080)">-</text><text fill="#FFFFFF" fill-opacity="1" font-family="Trebuchet MS,Trebuchet MS_MSFontService,sans-serif" font-style="normal" font-variant="normal" font-weight="400" font-stretch="normal" font-size="73" text-anchor="start" direction="ltr" writing-mode="lr-tb" unicode-bidi="normal" text-decoration="none" transform="matrix(1 0 0 1 3439.47 2080)">VL</text><text fill="#FFFFFF" fill-opacity="1" font-family="Trebuchet MS,Trebuchet MS_MSFontService,sans-serif" font-style="normal" font-variant="normal" font-weight="400" font-stretch="normal" font-size="73" text-anchor="start" direction="ltr" writing-mode="lr-tb" unicode-bidi="normal" text-decoration="none" transform="matrix(1 0 0 1 3193.5 2168)">(PALMA II)</text><path d="M0-6.875 128.339-6.875 128.339 830.953 121.464 824.078 208.548 824.078 208.548 837.828 114.589 837.828 114.589 0 121.464 6.875 0 6.875ZM201.673 810.328 242.923 830.953 201.673 851.578Z" fill="#8797A3" fill-rule="nonzero" fill-opacity="1" transform="matrix(1 0 0 -1 1026 1237.95)"/><path d="M1026 1231.12 1154.58 1231.12 1154.58 1507.56 1147.7 1500.68 1232.72 1500.68 1232.72 1514.43 1140.83 1514.43 1140.83 1238 1147.7 1244.87 1026 1244.87ZM1225.85 1486.93 1267.1 1507.56 1225.85 1528.18Z" fill="#8797A3" fill-rule="nonzero" fill-opacity="1"/><path d="M0-6.875 127.424-6.875 127.424 566.534 120.549 559.659 206.722 559.659 206.722 573.409 113.674 573.409 113.674 0 120.549 6.875 0 6.875ZM199.847 545.909 241.097 566.534 199.847 587.159Z" fill="#8797A3" fill-rule="nonzero" fill-opacity="1" transform="matrix(1 0 0 -1 1957 1507.53)"/><path d="M1957 1500.12 2084.42 1500.12 2084.42 1738.44 2077.55 1731.56 2163.72 1731.56 2163.72 1745.31 2070.67 1745.31 2070.67 1507 2077.55 1513.88 1957 1513.88ZM2156.85 1717.81 2198.1 1738.44 2156.85 1759.06Z" fill="#8797A3" fill-rule="nonzero" fill-opacity="1"/><path d="M3822 377.75 4007.5 377.75 4007.5 349 4065 406.5 4007.5 464 4007.5 435.25 3822 435.25Z" fill="#8797A3" fill-rule="evenodd" fill-opacity="1"/><text fill="#000000" fill-opacity="1" font-family="Trebuchet MS,Trebuchet MS_MSFontService,sans-serif" font-style="normal" font-variant="normal" font-weight="700" font-stretch="normal" font-size="41" text-anchor="start" direction="ltr" writing-mode="lr-tb" unicode-bidi="normal" text-decoration="none" transform="matrix(1 0 0 1 3860.33 422)">Results</text><path d="M3822 911.75 4007.5 911.75 4007.5 883 4065 940.5 4007.5 998 4007.5 969.25 3822 969.25Z" fill="#8797A3" fill-rule="evenodd" fill-opacity="1"/><text fill="#000000" fill-opacity="1" font-family="Trebuchet MS,Trebuchet MS_MSFontService,sans-serif" font-style="normal" font-variant="normal" font-weight="700" font-stretch="normal" font-size="41" text-anchor="start" direction="ltr" writing-mode="lr-tb" unicode-bidi="normal" text-decoration="none" transform="matrix(1 0 0 1 3860.33 956)">Results</text><path d="M3820 1994.75 4005.5 1994.75 4005.5 1966 4063 2023.5 4005.5 2081 4005.5 2052.25 3820 2052.25Z" fill="#8797A3" fill-rule="evenodd" fill-opacity="1"/><text fill="#000000" fill-opacity="1" font-family="Trebuchet MS,Trebuchet MS_MSFontService,sans-serif" font-style="normal" font-variant="normal" font-weight="700" font-stretch="normal" font-size="41" text-anchor="start" direction="ltr" writing-mode="lr-tb" unicode-bidi="normal" text-decoration="none" transform="matrix(1 0 0 1 3858.51 2039)">Results</text><path d="M2755 1478 4005 1478 4005 1449 4063 1507 4005 1565 4005 1536 2755 1536Z" fill="#8797A3" fill-rule="evenodd" fill-opacity="1"/><text fill="#000000" fill-opacity="1" font-family="Trebuchet MS,Trebuchet MS_MSFontService,sans-serif" font-style="normal" font-variant="normal" font-weight="700" font-stretch="normal" font-size="41" text-anchor="start" direction="ltr" writing-mode="lr-tb" unicode-bidi="normal" text-decoration="none" transform="matrix(1 0 0 1 3325.84 1522)">Results</text><path d="M2753 1982.12 2852.86 1982.13 2852.86 1995.88 2753 1995.87ZM2845.98 1968.38 2887.23 1989 2845.98 2009.63Z" fill="#8797A3" fill-rule="nonzero" fill-opacity="1"/><path d="M201.819 74.7043 136.944 74.7043 115.319 53.0376 61.2564 53.0376C52.2989 53.0376 45.0376 60.3129 45.0376 69.2876L45.0376 166.788C45.0376 175.762 52.2989 183.038 61.2564 183.038L201.819 183.038C210.776 183.038 218.038 175.762 218.038 166.788L218.038 90.9543C218.038 81.9796 210.776 74.7043 201.819 74.7043Z" fill="#910830" fill-rule="evenodd" fill-opacity="1"/><path d="M583.725 287.704 518.475 287.704 496.725 266.038 442.35 266.038C433.341 266.038 426.038 273.313 426.038 282.288L426.038 379.788C426.038 388.762 433.341 396.038 442.35 396.038L583.725 396.038C592.734 396.038 600.038 388.762 600.038 379.788L600.038 303.954C600.038 294.98 592.734 287.704 583.725 287.704ZM551.1 344.579C551.1 347.572 548.667 349.996 545.663 349.996L480.413 349.996C477.409 349.996 474.975 347.572 474.975 344.579L474.975 339.163C474.975 336.17 477.409 333.746 480.413 333.746L545.663 333.746C548.667 333.746 551.1 336.17 551.1 339.163L551.1 344.579Z" fill="#910830" fill-rule="evenodd" fill-opacity="1"/><path d="M962.819 815.704 897.944 815.704 876.319 794.038 822.256 794.038C813.299 794.038 806.038 801.313 806.038 810.288L806.038 907.788C806.038 916.762 813.299 924.038 822.256 924.038L962.819 924.038C971.776 924.038 979.038 916.762 979.038 907.788L979.038 831.954C979.038 822.98 971.776 815.704 962.819 815.704ZM930.381 872.579C930.381 875.572 927.962 877.996 924.975 877.996L860.1 877.996C857.113 877.996 854.694 875.572 854.694 872.579L854.694 867.163C854.694 864.17 857.113 861.746 860.1 861.746L924.975 861.746C927.962 861.746 930.381 864.17 930.381 867.163L930.381 872.579Z" fill="#910830" fill-rule="evenodd" fill-opacity="1"/><path d="M1636.36 832.98C1636.36 831.38 1635.73 829.831 1634.59 828.689L1609.77 803.806C1608.63 802.663 1607.09 802.028 1605.46 802.028L1603.92 802.028 1603.92 834.528 1636.36 834.528 1636.36 832.98ZM1587.7 887.341 1587.7 879.216C1587.7 876.971 1589.51 875.153 1591.75 875.153L1636.36 875.153 1636.36 842.653 1601.89 842.653C1598.54 842.653 1595.81 839.911 1595.81 836.56L1595.81 802.028 1545.11 802.028C1541.74 802.028 1539.03 804.745 1539.03 808.122L1539.03 925.935C1539.03 929.311 1541.74 932.028 1545.11 932.028L1630.28 932.028C1633.65 932.028 1636.36 929.311 1636.36 925.935L1636.36 891.403 1591.75 891.403C1589.51 891.403 1587.7 889.585 1587.7 887.341ZM1683.77 880.226 1659.52 855.742C1656.97 853.168 1652.58 854.978 1652.58 858.604L1652.58 875.153 1636.36 875.153 1636.36 891.403 1652.58 891.403 1652.58 907.953C1652.58 911.579 1656.96 913.389 1659.52 910.814L1683.77 886.333C1685.45 884.642 1685.45 881.915 1683.77 880.226Z" fill="#8797A3" fill-rule="evenodd" fill-opacity="1"/><path d="M1471.43 398.501C1472.62 395.397 1473.28 392.001 1473.28 388.461 1473.28 373.082 1460.85 360.604 1445.53 360.604 1439.84 360.604 1434.52 362.345 1430.13 365.305 1422.12 351.376 1407.17 342.033 1390.03 342.033 1364.48 342.033 1343.78 362.809 1343.78 388.461 1343.78 389.245 1343.81 390.028 1343.84 390.812 1327.65 396.528 1316.03 412.024 1316.03 430.247 1316.03 453.316 1334.68 472.033 1357.66 472.033L1464.03 472.033C1484.47 472.033 1501.03 455.405 1501.03 434.89 1501.03 416.928 1488.31 401.926 1471.43 398.501ZM1429.75 416.318 1410.85 416.318 1410.85 448.818C1410.85 451.372 1408.76 453.461 1406.22 453.461L1392.35 453.461C1389.8 453.461 1387.72 451.372 1387.72 448.818L1387.72 416.318 1368.82 416.318C1364.68 416.318 1362.63 411.327 1365.55 408.397L1396.02 377.812C1397.81 376.013 1400.76 376.013 1402.55 377.812L1433.02 408.397C1435.94 411.327 1433.85 416.318 1429.75 416.318Z" fill="#8797A3" fill-rule="evenodd" fill-opacity="1"/><path d="M2395.43 932.067C2396.62 928.986 2397.28 925.617 2397.28 922.104 2397.28 906.843 2384.85 894.461 2369.53 894.461 2363.84 894.461 2358.52 896.189 2354.13 899.126 2346.12 885.304 2331.17 876.032 2314.03 876.032 2288.48 876.032 2267.78 896.649 2267.78 922.104 2267.78 922.881 2267.81 923.659 2267.84 924.436 2251.65 930.109 2240.03 945.485 2240.03 963.568 2240.03 986.46 2258.68 1005.03 2281.66 1005.03L2388.03 1005.03C2408.47 1005.03 2425.03 988.533 2425.03 968.175 2425.03 950.351 2412.31 935.465 2395.43 932.067ZM2353.75 949.747 2334.84 949.747 2334.84 981.997C2334.84 984.531 2332.76 986.604 2330.22 986.604L2316.34 986.604C2313.8 986.604 2311.72 984.531 2311.72 981.997L2311.72 949.747 2292.82 949.747C2288.68 949.747 2286.63 944.794 2289.55 941.886L2320.02 911.536C2321.81 909.751 2324.76 909.751 2326.55 911.536L2357.02 941.886C2359.94 944.794 2357.85 949.747 2353.75 949.747Z" fill="#8797A3" fill-rule="evenodd" fill-opacity="1"/><path d="M4201.49 265.425 4201.49 288.639C4201.49 292.486 4198.36 295.604 4194.51 295.604L4165.02 295.604C4161.16 295.604 4158.03 292.486 4158.03 288.639L4158.03 265.425C4158.03 261.579 4161.16 258.461 4165.02 258.461L4194.51 258.461C4198.36 258.461 4201.49 261.579 4201.49 265.425ZM4158.03 311.854 4158.03 335.068C4158.03 338.914 4161.16 342.032 4165.02 342.032L4194.51 342.032C4198.36 342.032 4201.49 338.914 4201.49 335.068L4201.49 311.854C4201.49 308.007 4198.36 304.889 4194.51 304.889L4165.02 304.889C4161.16 304.889 4158.03 308.007 4158.03 311.854ZM4194.51 212.032 4165.02 212.032C4161.16 212.032 4158.03 215.15 4158.03 218.997L4158.03 242.211C4158.03 246.057 4161.16 249.175 4165.02 249.175L4194.51 249.175C4198.36 249.175 4201.49 246.057 4201.49 242.211L4201.49 218.997C4201.49 215.15 4198.36 212.032 4194.51 212.032ZM4217.79 342.032 4300.05 342.032C4303.91 342.032 4307.03 338.914 4307.03 335.068L4307.03 311.854C4307.03 308.007 4303.91 304.889 4300.05 304.889L4217.79 304.889C4213.93 304.889 4210.8 308.007 4210.8 311.854L4210.8 335.068C4210.8 338.914 4213.93 342.032 4217.79 342.032ZM4210.8 218.997 4210.8 242.211C4210.8 246.057 4213.93 249.175 4217.79 249.175L4300.05 249.175C4303.91 249.175 4307.03 246.057 4307.03 242.211L4307.03 218.997C4307.03 215.15 4303.91 212.032 4300.05 212.032L4217.79 212.032C4213.93 212.032 4210.8 215.15 4210.8 218.997ZM4217.79 295.604 4300.05 295.604C4303.91 295.604 4307.03 292.486 4307.03 288.639L4307.03 265.425C4307.03 261.579 4303.91 258.461 4300.05 258.461L4217.79 258.461C4213.93 258.461 4210.8 261.579 4210.8 265.425L4210.8 288.639C4210.8 292.486 4213.93 295.604 4217.79 295.604Z" fill="#8797A3" fill-rule="evenodd" fill-opacity="1"/><path d="M2426.63 1355.4 2402.18 1355.4C2397.68 1355.4 2394.03 1359.04 2394.03 1363.53L2394.03 1387.9C2394.03 1392.39 2397.68 1396.03 2402.18 1396.03L2426.63 1396.03C2431.13 1396.03 2434.78 1392.39 2434.78 1387.9L2434.78 1363.53C2434.78 1359.04 2431.13 1355.4 2426.63 1355.4ZM2420.52 1335.09 2469.42 1335.09 2469.42 1347.28 2481.64 1347.28 2481.64 1335.09 2530.54 1335.09 2530.54 1347.28 2542.77 1347.28 2542.77 1332.66C2542.77 1327.28 2538.38 1322.9 2532.98 1322.9L2481.64 1322.9 2481.64 1306.65 2491.83 1306.65C2496.33 1306.65 2499.98 1303.02 2499.98 1298.53L2499.98 1274.15C2499.98 1269.67 2496.33 1266.03 2491.83 1266.03L2459.23 1266.03C2454.73 1266.03 2451.08 1269.67 2451.08 1274.15L2451.08 1298.53C2451.08 1303.02 2454.73 1306.65 2459.23 1306.65L2469.42 1306.65 2469.42 1322.9 2418.07 1322.9C2412.68 1322.9 2408.29 1327.28 2408.29 1332.66L2408.29 1347.28 2420.52 1347.28 2420.52 1335.09ZM2487.75 1355.4 2463.3 1355.4C2458.8 1355.4 2455.15 1359.04 2455.15 1363.53L2455.15 1387.9C2455.15 1392.39 2458.8 1396.03 2463.3 1396.03L2487.75 1396.03C2492.25 1396.03 2495.9 1392.39 2495.9 1387.9L2495.9 1363.53C2495.9 1359.04 2492.25 1355.4 2487.75 1355.4ZM2548.88 1355.4 2524.43 1355.4C2519.93 1355.4 2516.28 1359.04 2516.28 1363.53L2516.28 1387.9C2516.28 1392.39 2519.93 1396.03 2524.43 1396.03L2548.88 1396.03C2553.38 1396.03 2557.03 1392.39 2557.03 1387.9L2557.03 1363.53C2557.03 1359.04 2553.38 1355.4 2548.88 1355.4Z" fill="#8797A3" fill-rule="evenodd" fill-opacity="1"/><path d="M2964.43 1866.4 2940.13 1866.4C2935.66 1866.4 2932.03 1870.04 2932.03 1874.53L2932.03 1898.9C2932.03 1903.39 2935.66 1907.03 2940.13 1907.03L2964.43 1907.03C2968.9 1907.03 2972.53 1903.39 2972.53 1898.9L2972.53 1874.53C2972.53 1870.04 2968.9 1866.4 2964.43 1866.4ZM2958.35 1846.09 3006.95 1846.09 3006.95 1858.28 3019.1 1858.28 3019.1 1846.09 3067.7 1846.09 3067.7 1858.28 3079.85 1858.28 3079.85 1843.66C3079.85 1838.28 3075.49 1833.9 3070.13 1833.9L3019.1 1833.9 3019.1 1817.65 3029.23 1817.65C3033.7 1817.65 3037.33 1814.02 3037.33 1809.53L3037.33 1785.15C3037.33 1780.67 3033.7 1777.03 3029.23 1777.03L2996.83 1777.03C2992.36 1777.03 2988.73 1780.67 2988.73 1785.15L2988.73 1809.53C2988.73 1814.02 2992.36 1817.65 2996.83 1817.65L3006.95 1817.65 3006.95 1833.9 2955.93 1833.9C2950.56 1833.9 2946.2 1838.28 2946.2 1843.66L2946.2 1858.28 2958.35 1858.28 2958.35 1846.09ZM3025.18 1866.4 3000.88 1866.4C2996.41 1866.4 2992.78 1870.04 2992.78 1874.53L2992.78 1898.9C2992.78 1903.39 2996.41 1907.03 3000.88 1907.03L3025.18 1907.03C3029.65 1907.03 3033.28 1903.39 3033.28 1898.9L3033.28 1874.53C3033.28 1870.04 3029.65 1866.4 3025.18 1866.4ZM3085.93 1866.4 3061.63 1866.4C3057.16 1866.4 3053.53 1870.04 3053.53 1874.53L3053.53 1898.9C3053.53 1903.39 3057.16 1907.03 3061.63 1907.03L3085.93 1907.03C3090.4 1907.03 3094.03 1903.39 3094.03 1898.9L3094.03 1874.53C3094.03 1870.04 3090.4 1866.4 3085.93 1866.4Z" fill="#8797A3" fill-rule="evenodd" fill-opacity="1"/></g></g></svg>